<svg width="31" height="33" viewBox="0 0 31 33" fill="none" xmlns="http://www.w3.org/2000/svg">
<path d="M3.35714 0V2.86957H0.5V33H30.5V8.6087H19.0714V2.86957H16.2143V0H3.35714ZM4.78571 1.43478H14.7857V4.30435H17.6429V31.5652H11.2143V26.5435H8.35714V31.5652H1.92857V4.30435H4.78571V1.43478ZM4.78571 5.73913V7.17391H6.21429V5.73913H4.78571ZM7.64286 5.73913V7.17391H9.07143V5.73913H7.64286ZM10.5 5.73913V7.17391H11.9286V5.73913H10.5ZM13.3571 5.73913V7.17391H14.7857V5.73913H13.3571ZM4.78571 9.32609V12.1957H6.21429V9.32609H4.78571ZM7.64286 9.32609V12.1957H9.07143V9.32609H7.64286ZM10.5 9.32609V12.1957H11.9286V9.32609H10.5ZM13.3571 9.32609V12.1957H14.7857V9.32609H13.3571ZM19.0714 10.0435H29.0714V31.5652H19.0714V10.0435ZM20.5 11.4783V12.913H21.9286V11.4783H20.5ZM23.3571 11.4783V12.913H24.7857V11.4783H23.3571ZM26.2143 11.4783V12.913H27.6429V11.4783H26.2143ZM4.78571 13.6304V16.5H6.21429V13.6304H4.78571ZM7.64286 13.6304V16.5H9.07143V13.6304H7.64286ZM10.5 13.6304V16.5H11.9286V13.6304H10.5ZM13.3571 13.6304V16.5H14.7857V13.6304H13.3571ZM20.5 14.3478V15.7826H21.9286V14.3478H20.5ZM23.3571 14.3478V15.7826H24.7857V14.3478H23.3571ZM26.2143 14.3478V15.7826H27.6429V14.3478H26.2143ZM20.5 17.2174V18.6522H21.9286V17.2174H20.5ZM23.3571 17.2174V18.6522H24.7857V17.2174H23.3571ZM26.2143 17.2174V18.6522H27.6429V17.2174H26.2143ZM4.78571 17.9348V20.8043H6.21429V17.9348H4.78571ZM7.64286 17.9348V20.8043H9.07143V17.9348H7.64286ZM10.5 17.9348V20.8043H11.9286V17.9348H10.5ZM13.3571 17.9348V20.8043H14.7857V17.9348H13.3571ZM20.5 20.087V21.5217H21.9286V20.087H20.5ZM23.3571 20.087V21.5217H24.7857V20.087H23.3571ZM26.2143 20.087V21.5217H27.6429V20.087H26.2143ZM4.78571 22.2391V25.1087H6.21429V22.2391H4.78571ZM7.64286 22.2391V25.1087H9.07143V22.2391H7.64286ZM10.5 22.2391V25.1087H11.9286V22.2391H10.5ZM13.3571 22.2391V25.1087H14.7857V22.2391H13.3571ZM20.5 22.9565V24.3913H21.9286V22.9565H20.5ZM23.3571 22.9565V24.3913H24.7857V22.9565H23.3571ZM26.2143 22.9565V24.3913H27.6429V22.9565H26.2143ZM20.5 25.8261V27.2609H21.9286V25.8261H20.5ZM23.3571 25.8261V27.2609H24.7857V25.8261H23.3571ZM26.2143 25.8261V27.2609H27.6429V25.8261H26.2143ZM4.78571 26.5435V30.1304H6.21429V26.5435H4.78571ZM13.3571 26.5435V30.1304H14.7857V26.5435H13.3571ZM20.5 28.6957V30.1304H21.9286V28.6957H20.5ZM23.3571 28.6957V30.1304H24.7857V28.6957H23.3571ZM26.2143 28.6957V30.1304H27.6429V28.6957H26.2143Z" fill="#010157"/>
</svg>
