<svg width="273" height="291" viewBox="0 0 273 291" fill="none" xmlns="http://www.w3.org/2000/svg">
<path d="M82.6592 273.745C82.6592 273.745 88.2969 271.691 97.6102 269.527C129.307 262.161 164.256 265.077 192.501 277.284C192.501 277.284 163.097 294.6 126.171 289.71C89.2449 284.819 82.6592 273.745 82.6592 273.745Z" fill="#F5EDE9"/>
<path d="M162.354 271.406C162.354 271.406 166.526 269.886 173.416 268.285C196.867 262.835 222.724 264.992 243.621 274.023C243.621 274.023 221.867 286.835 194.546 283.217C167.227 279.599 162.354 271.406 162.354 271.406Z" fill="#F5EDE9"/>
<path d="M29.3804 266.866C29.3804 266.866 33.5519 264.925 40.4424 262.881C63.8934 255.922 89.7501 258.677 110.647 270.209C110.647 270.209 88.8928 286.567 61.5725 281.947C34.2528 277.327 29.3804 266.866 29.3804 266.866Z" fill="#F5EDE9"/>
<path d="M34.465 21.7538C34.0091 21.7584 33.5433 21.7965 33.1314 21.9896C32.5067 22.2826 32.0902 22.8936 31.8084 23.5229C30.2383 27.0315 32.2065 31.2516 35.1403 33.7354C38.0742 36.2192 41.8088 37.4989 45.2143 39.2818C47.8933 40.6843 50.387 42.4114 52.8734 44.1338C58.2557 47.8632 64.0005 52.08 65.809 58.3733C64.2298 43.5012 54.6537 29.6697 41.1098 23.2063C39.0398 22.2182 36.7583 21.7295 34.465 21.7538Z" fill="#FFAC1C"/>
<path d="M105.844 3.5911C106.529 5.46793 106.031 7.60884 105.026 9.33589C104.021 11.0629 102.557 12.4661 101.156 13.8903C93.6747 21.4903 87.4024 30.4914 84.1756 40.6553C81.1977 30.0427 84.3326 18.5775 89.4533 8.81692C91.1502 5.58158 93.2471 2.28908 96.5468 0.721005C99.8459 -0.847726 104.593 0.158679 105.844 3.5911Z" fill="#74A203"/>
<path d="M240.044 78.2578C242.898 69.455 251.409 62.7859 260.639 62.1218C262.822 61.9648 265.092 62.1329 267.052 63.1058C269.012 64.0787 270.611 65.9772 270.772 68.1602C271.006 71.3496 268.18 74.0462 265.149 75.0664C262.118 76.0866 258.835 75.9277 255.665 76.3507C251.277 76.936 247.047 78.6729 243.514 81.3414C241.291 83.0211 239.259 85.2139 238.677 87.9388C239.273 83.3791 238.627 82.6329 240.044 78.2578Z" fill="#7F9DFF"/>
<path d="M234.124 19.0121C236.195 17.8034 238.943 18.367 240.87 19.7939C242.797 21.2207 244.062 23.3544 245.17 25.4808C246.727 28.4646 248.093 31.5955 248.634 34.9169C249.689 41.4033 247.51 47.9864 244.678 53.9171C242.046 59.4267 238.37 65.0342 232.598 67.0253C236.359 59.4372 238.732 50.6751 236.561 42.4892C235.058 36.8174 231.445 31.6664 231.208 25.8034C231.104 23.2151 231.887 20.3181 234.124 19.0121Z" fill="#E53F33"/>
<path d="M4.83368 212.658C7.03308 210.838 9.97875 210.191 12.8278 210.008C19.1015 209.606 25.5677 211.269 30.5978 215.039C35.6285 218.809 39.0971 224.74 39.4597 231.015C33.2616 222.123 20.556 218.463 10.5772 222.694C8.30818 223.657 5.64959 224.962 3.56055 223.653C2.16721 222.78 1.61408 220.99 1.6351 219.346C1.66729 216.795 2.86881 214.283 4.83368 212.658Z" fill="#7F9DFF"/>
<path d="M264.458 195.931C264.079 193.686 262.204 191.898 260.066 191.114C257.929 190.33 255.568 190.411 253.32 190.774C246.502 191.876 240.136 195.57 235.797 200.942C231.458 206.314 229.185 213.315 229.543 220.212C230.029 214.776 234.945 210.934 239.583 208.057C241.247 207.025 242.95 206.017 244.815 205.421C247.406 204.593 250.176 204.597 252.893 204.463C255.61 204.328 258.415 204.018 260.768 202.653C263.122 201.288 264.91 198.613 264.458 195.931Z" fill="#770D31"/>
<path d="M254.785 162.774C255.417 163.317 255.859 164.048 256.214 164.802C258.762 170.226 256.902 177.006 252.816 181.389C248.73 185.772 242.829 188.062 236.929 189.11C240.111 185.425 243.397 181.543 244.513 176.805C245.061 174.484 245.054 172.073 245.399 169.714C245.744 167.355 246.514 164.931 248.27 163.319C250.026 161.707 252.975 161.222 254.785 162.774Z" fill="#097D6A"/>
<path d="M20.2456 16.7573L22.9594 22.2551L29.0268 23.1367L24.6365 27.4165L25.6725 33.4589L20.2456 30.6059L14.8187 33.4589L15.8553 27.4165L11.4651 23.1367L17.5325 22.2551L20.2456 16.7573Z" fill="#E53F33"/>
<path d="M80.2474 44.0938L80.3958 47.5472L83.3244 49.3826L80.0858 50.5907L79.2449 53.9436L77.0954 51.2365L73.6472 51.473L75.5569 48.5924L74.266 45.3859L77.5967 46.3115L80.2474 44.0938Z" fill="#7F9DFF"/>
<path d="M215.23 9.08057L218.533 12.8572L223.518 12.2772L220.946 16.5866L223.038 21.1476L218.146 20.0341L214.454 23.433L214.001 18.4351L209.628 15.975L214.241 14.0003L215.23 9.08057Z" fill="#FFAC1C"/>
<path d="M257.377 87.8164L259.015 91.1358L262.679 91.6679L260.028 94.2516L260.653 97.9002L257.377 96.1777L254.101 97.9002L254.726 94.2516L252.076 91.6679L255.739 91.1358L257.377 87.8164Z" fill="#E53F33"/>
<path d="M252.096 137.989L251.333 145.496L257.085 150.381L249.709 151.975L246.841 158.955L243.045 152.433L235.521 151.862L240.551 146.237L238.769 138.905L245.673 141.95L252.096 137.989Z" fill="#FFAC1C"/>
<path d="M4.83015 192.687L7.86713 193.895L10.5835 192.077L10.374 195.339L12.9419 197.361L9.77485 198.169L8.64559 201.236L6.89816 198.474L3.63257 198.348L5.71898 195.833L4.83015 192.687Z" fill="#097D6A"/>
<path d="M213.572 259.637C212.695 258.518 212.033 257.254 211.606 255.916C211.387 255.225 211.232 254.514 211.142 253.791C211.055 253.092 210.687 252.458 210.097 252.071L204.59 248.468C203.569 247.799 202.206 248.029 201.461 248.995L200.476 250.27L195.448 256.789L216.318 270.447C216.969 266.62 215.974 262.693 213.572 259.637Z" fill="#E53F33"/>
<path d="M203.804 261.265C203.65 261.5 203.487 261.723 203.311 261.932L195.447 256.786L200.475 250.268C200.875 250.438 201.262 250.646 201.637 250.891C205.101 253.158 206.071 257.801 203.804 261.265Z" fill="#232163"/>
<path d="M216.304 270.436L195.435 256.778L194.217 258.638L215.086 272.296L216.304 270.436Z" fill="#232163"/>
<path d="M171.687 175.831C172.865 175.034 174.171 174.46 175.535 174.127C176.239 173.956 176.96 173.851 177.687 173.811C178.391 173.773 179.049 173.449 179.475 172.888L183.452 167.644C184.19 166.672 184.055 165.296 183.144 164.486L181.94 163.415L175.785 157.947L160.713 177.82C164.486 178.736 168.472 178.015 171.687 175.831Z" fill="#E53F33"/>
<path d="M170.737 165.973C170.513 165.804 170.302 165.626 170.107 165.435L175.785 157.948L181.94 163.415C181.742 163.802 181.508 164.174 181.238 164.531C178.735 167.829 174.035 168.475 170.737 165.973Z" fill="#232163"/>
<path d="M160.702 177.822L175.775 157.948L174.003 156.604L158.931 176.478L160.702 177.822Z" fill="#232163"/>
<path d="M225.921 79.9468C227.873 75.2748 227.631 69.9025 226.136 65.0649C224.641 60.2273 222.202 55.9672 219.359 51.7767C219.657 48.8488 219.311 45.8039 217.992 43.1723C216.674 40.5407 214.317 38.3649 211.469 37.62C208.622 36.875 205.213 38.1376 203.337 40.4053C199.4 41.8269 196.371 45.2712 194.96 49.2114C193.55 53.1516 193.65 57.5287 194.714 61.576C195.779 65.6239 197.765 69.3763 200.053 72.8803C199.095 81.7579 195.759 89.9938 190.54 97.239C188.836 99.6032 186.913 101.858 185.766 104.537C184.618 107.215 184.369 110.495 185.991 112.916C186.172 111.579 186.914 110.304 187.797 109.284C187.553 115.612 191.427 122.255 197.219 124.814C203.142 118.061 209.221 111.408 214.345 104.03C219.468 96.653 222.459 88.2345 225.921 79.9468Z" fill="#643427"/>
<path d="M189.147 168.81L182.073 165.906C182.073 165.906 177.499 168.154 178.556 172.479L184.438 176.904L189.147 168.81Z" fill="#F27E55"/>
<path d="M233.034 182.159C232.712 189.24 232.075 194.443 230.945 195.698C227.542 199.495 218.424 197.084 209.181 193.123C197.113 187.953 184.842 180.155 184.842 180.155C184.842 180.155 182.148 171.175 187.837 166.36L200.667 169.434L206.08 170.735L212.577 122.668L219.79 121.794L229.671 120.592L232.219 124.192C232.219 124.192 233.987 161.301 233.034 182.159Z" fill="#232163"/>
<path d="M205.127 242.562L202.811 249.85C202.811 249.85 205.425 254.225 209.649 252.818L213.579 246.593L205.127 242.562Z" fill="#F27E55"/>
<path d="M224.973 124.747C224.973 124.747 228.907 141.078 224.607 141.752L220.222 124.813L224.973 124.747Z" fill="#171642"/>
<path d="M233.034 182.159C232.712 189.241 232.075 194.443 230.945 195.698C227.542 199.495 218.424 197.084 209.181 193.123L209.45 191.336L200.667 169.434L206.08 170.735L212.577 122.668L219.79 121.794L219.889 121.834C220.48 122.077 220.92 122.589 221.065 123.207C221.498 125.059 229.914 160.973 233.034 182.159Z" fill="#171642"/>
<path d="M232.22 193.728C232.285 208.403 216.296 249.133 216.296 249.133C216.296 249.133 214.364 249.31 211.737 248.594C211.527 248.541 211.316 248.482 211.1 248.41C208.767 247.681 206.015 246.242 203.597 243.437L211.481 191.1L199.656 161.624C199.656 161.624 177.977 146.429 193.343 118.622L199.656 115.705L219.147 123.66C219.147 123.66 232.161 179.059 232.22 193.728Z" fill="#232163"/>
<path d="M261.67 118.817V124.217C261.67 124.217 240.169 126.615 230.972 121.215L229.671 100.121L233.652 98.3937L237.968 96.5215L240.655 111.42L261.67 118.817Z" fill="#F27E55"/>
<path d="M261.67 124.217C261.67 124.217 240.169 126.615 230.972 121.215L229.671 100.121L233.652 98.3936L235.071 98.906C235.071 98.906 233.6 119.317 237.541 120.171C241.483 121.031 261.67 124.217 261.67 124.217Z" fill="#E86E43"/>
<path d="M185.275 71.2254L184.178 77.5253L184.158 77.5516L181.15 82.1632C181.15 82.1632 167.38 80.2975 160.483 72.2371C152.567 62.2781 164.043 36.6121 164.569 35.4691C164.575 35.4428 164.582 35.4297 164.582 35.4297L169.877 36.934V62.9285L181.15 65.5233L185.275 71.2254Z" fill="#F27E55"/>
<path d="M184.158 77.5507L181.15 82.1623C181.15 82.1623 167.38 80.2966 160.483 72.2362C152.567 62.2773 164.043 36.6113 164.569 35.4683C164.181 36.7952 154.899 68.61 164.582 72.2362C171.88 74.9756 180.269 76.7887 184.158 77.5507Z" fill="#E86E43"/>
<path d="M224.973 72.234L225.846 71.3872C225.846 71.3872 229.273 72.3246 231.673 77.224C234.072 82.1233 239.472 97.421 239.472 97.421C239.472 97.421 236.472 101.196 230.773 101.121L224.973 72.234Z" fill="#FF951C"/>
<path d="M232.063 100.771L234.034 123.547C214.438 131.102 193.344 118.62 193.344 118.62L199.328 101.212L192.871 83.363L181.151 82.1608C177.866 75.8084 181.151 65.521 181.151 65.521L202.173 66.7232L206.995 70.553L218.222 72.2347L221.749 70.0078L225.848 71.3873C225.848 71.3873 233.048 83.363 234.691 89.9322C236.333 96.5015 232.063 100.771 232.063 100.771Z" fill="#FFAC1C"/>
<path d="M222.701 87.7915C215.317 90.3798 204.32 75.7632 202.172 66.724L208.268 67.0984L208.169 60.1613L208.117 56.3774L215.159 57.9081L216.236 63.9189L216.999 68.1692L221.748 70.0086C221.748 70.0086 230.091 85.2032 222.701 87.7915Z" fill="#F27E55"/>
<path d="M216.236 63.9189C215.402 63.9123 214.436 63.7941 213.346 63.4722C211.336 62.8678 209.569 61.6985 208.169 60.1613L208.117 56.3774L215.159 57.9081L216.236 63.9189Z" fill="#CC5D32"/>
<path d="M169.185 37.733L169.879 36.9283C169.879 36.9283 176.28 33.5031 175.462 32.6163C174.643 31.7294 172.359 32.6163 172.359 32.6163C172.359 32.6163 174.711 27.7038 173.892 26.9529C173.074 26.2021 170.617 30.9102 170.617 30.9102C170.617 30.9102 173.005 25.7245 171.846 25.4519C170.686 25.1786 168.639 30.16 168.639 30.16C168.639 30.16 170.14 24.8383 169.253 24.4284C168.366 24.0191 166.523 29.6818 166.523 29.6818C166.523 29.6818 167.752 25.042 166.523 25.042C165.296 25.042 163.728 32.5775 164.58 35.4279L166.25 38.4149L169.185 37.733Z" fill="#F27E55"/>
<path d="M260.655 123.895L261.668 124.218C261.668 124.218 267.331 128.76 267.825 127.659C268.32 126.558 266.607 124.806 266.607 124.806C266.607 124.806 272.049 125.041 272.418 123.993C272.787 122.945 267.492 122.535 267.492 122.535C267.492 122.535 273.199 122.696 272.995 121.522C272.79 120.348 267.406 120.421 267.406 120.421C267.406 120.421 272.89 119.712 272.918 118.736C272.946 117.76 267.015 118.288 267.015 118.288C267.015 118.288 271.764 117.597 271.282 116.467C270.8 115.338 263.254 116.854 260.966 118.756L258.875 121.465L260.655 123.895Z" fill="#F27E55"/>
<path d="M204.322 44.9427C204.429 42.5975 206.625 40.9289 208.924 41.4052C211.552 41.9491 214.911 43.3897 216.627 47.1263C219.692 53.8053 217.393 59.0606 217.393 59.0606C217.393 59.0606 214.991 60.3456 211.304 59.2439C208.65 58.451 206.409 56.6556 204.889 54.34L204.035 53.0386C204.035 53.0386 205.459 50.9581 204.582 47.5645C204.347 46.6481 204.285 45.7566 204.322 44.9427Z" fill="#F27E55"/>
<path d="M234.034 123.547C214.438 131.102 193.344 118.62 193.344 118.62L199.328 101.212L192.871 83.363L181.151 82.1608C177.866 75.8084 181.151 65.521 181.151 65.521C181.151 65.521 182.071 78.1076 184.843 79.4215L190.709 80.2689C195.406 80.9455 199.335 84.1973 200.879 88.6841L202.455 93.2694C203.835 97.2766 206.942 100.482 210.943 101.882C214.332 103.071 218.642 103.498 223.089 101.12C223.089 101.12 220.186 106.723 211.337 105.882C208.092 105.574 205.07 107.597 203.973 110.665L203.519 111.919C202.435 114.961 203.716 118.364 206.568 119.868C211.455 122.443 220.324 125.327 234.034 123.547Z" fill="#FF951C"/>
<path d="M223.154 195.433C223.154 195.453 223.148 195.479 223.148 195.499C223.148 195.538 223.148 195.577 223.135 195.61C221.354 213.643 217.531 231.432 211.737 248.591C211.527 248.539 211.316 248.479 211.1 248.407C216.894 231.281 220.717 213.525 222.491 195.518C217.288 174.937 212.085 154.349 206.882 133.768C204.327 132.513 202.441 130.01 202.1 126.844C202.054 126.423 202.711 126.43 202.757 126.844C203.059 129.662 204.701 131.895 206.941 133.078C207.112 132.973 207.368 133.006 207.427 133.255C207.434 133.275 207.441 133.295 207.447 133.314C209.024 134.011 210.85 134.208 212.709 133.741C213.116 133.636 213.294 134.273 212.88 134.372C211.041 134.838 209.241 134.694 207.644 134.096C212.795 154.474 217.945 174.845 223.089 195.223C223.135 195.275 223.161 195.341 223.154 195.433Z" fill="#171642"/>
<path d="M208.825 47.7924C208.235 47.8213 207.652 48.3718 207.249 48.7732C206.813 49.2068 206.393 49.7369 206.197 50.3255C206.114 50.5764 206.435 50.7151 206.609 50.5653C207.043 50.1908 207.415 49.7507 207.857 49.3815C208.261 49.0445 208.854 48.785 209.142 48.3442C209.291 48.1163 209.097 47.7786 208.825 47.7924Z" fill="#643427"/>
<path d="M208.795 52.2424C208.795 52.2424 207.652 50.3872 208.236 49.8538C208.821 49.3204 210.777 50.7689 210.777 50.7689L208.922 50.625L208.795 52.2424Z" fill="#643427"/>
<path d="M211.595 46.703C211.838 46.1644 212.564 45.8228 213.085 45.5948C213.647 45.3478 214.295 45.1514 214.914 45.1849C215.178 45.1993 215.189 45.5488 214.986 45.6559C214.479 45.9226 213.933 46.1072 213.428 46.3838C212.967 46.636 212.508 47.0932 211.993 47.1997C211.726 47.2555 211.483 46.9514 211.595 46.703Z" fill="#643427"/>
<path d="M215.749 48.3054C215.749 48.3054 214.441 46.5626 213.73 46.9114C213.02 47.2602 213.651 49.6107 213.651 49.6107L214.196 47.8317L215.749 48.3054Z" fill="#643427"/>
<path d="M215.302 51.3076C214.747 51.0541 214.135 50.9949 213.579 50.7026C212.993 50.3932 212.559 49.8926 212.113 49.4196C212.097 49.4032 212.066 49.4203 212.074 49.442C212.421 50.3801 213.6 51.5303 214.703 51.7451C214.629 51.8128 214.556 51.8838 214.477 51.956C214.217 52.1978 213.918 52.3837 213.635 52.5952C213.304 52.8415 213.618 53.4039 213.964 53.1582C214.267 52.9421 214.516 52.6786 214.767 52.4067C214.948 52.2102 215.129 52.0119 215.214 51.7675C215.415 51.7156 215.534 51.4141 215.302 51.3076Z" fill="#CC5D32"/>
<path d="M210.271 54.5241C211.996 55.3985 214.166 55.3256 215.829 54.3369C215.929 54.7928 215.976 55.4182 215.933 55.8833C215.891 56.3484 215.683 56.822 215.286 57.0704C214.907 57.3082 214.425 57.3036 213.984 57.2287C212.405 56.9587 210.877 56.0062 210.271 54.5241Z" fill="white"/>
<path d="M92.4813 256.444C93.1179 255.173 93.516 253.802 93.6684 252.407C93.7459 251.686 93.7558 250.959 93.6999 250.232C93.6461 249.529 93.8806 248.835 94.3825 248.339L99.0624 243.711C99.9302 242.853 101.311 242.807 102.234 243.606L103.453 244.659L109.677 250.047L91.9407 267.584C90.5414 263.963 90.7359 259.916 92.4813 256.444Z" fill="#9EBA00"/>
<path d="M102.379 256.1C102.577 256.3 102.78 256.486 102.995 256.655L109.677 250.048L103.453 244.66C103.095 244.907 102.757 245.187 102.439 245.502C99.4949 248.413 99.4686 253.156 102.379 256.1Z" fill="#232163"/>
<path d="M93.5038 269.164L111.24 251.627L109.677 250.046L91.9408 267.583L93.5038 269.164Z" fill="#232163"/>
<path d="M66.484 242.475C66.9235 241.122 67.1121 239.708 67.0543 238.305C67.0227 237.581 66.9242 236.86 66.7606 236.15C66.6023 235.463 66.7304 234.741 67.1521 234.176L71.0885 228.901C71.8183 227.924 73.1768 227.672 74.2089 228.323L75.5713 229.183L82.5308 233.581L67.614 253.57C65.6885 250.199 65.2766 246.169 66.484 242.475Z" fill="#9EBA00"/>
<path d="M76.2184 240.658C76.4431 240.825 76.673 240.979 76.9101 241.115L82.5302 233.583L75.5707 229.185C75.2534 229.483 74.961 229.811 74.6937 230.169C72.2184 233.487 72.9009 238.182 76.2184 240.658Z" fill="#232163"/>
<path d="M69.4014 254.888L84.3193 234.9L82.5378 233.57L67.6198 253.559L69.4014 254.888Z" fill="#232163"/>
<path d="M96.3387 238.146L100.665 244.45C100.665 244.45 99.4289 249.395 94.9789 249.271L89.416 244.45L96.3387 238.146Z" fill="#F27E55"/>
<path d="M67.8369 223.737L72.771 229.579C72.771 229.579 72.0346 234.622 67.5938 234.943L61.5776 230.701L67.8369 223.737Z" fill="#F27E55"/>
<path d="M98.0311 237.567C98.0311 237.567 97.2559 239.518 95.5019 241.6C95.3639 241.771 95.2194 241.935 95.0617 242.099C93.1632 244.201 90.2793 246.29 86.2261 246.56C86.2261 246.56 61.6832 212.452 58.3066 203.834C54.9366 195.215 42.1921 156.423 42.1921 156.423L43.1315 143.686L67.6744 137.123L71.1693 139.554C71.1693 139.554 77.7977 150.242 77.4232 164.858C77.0488 179.475 77.4364 198.026 77.4364 198.026L98.0311 237.567Z" fill="#232163"/>
<path d="M68.9632 221.64C68.9632 222.934 68.707 224.149 68.28 225.266C66.3289 230.436 60.8305 233.582 60.8305 233.582C60.8305 233.582 36.6949 220.056 28.1614 213.402C19.6345 206.741 11.4229 201.124 11.4229 193.221C11.4229 188.432 33.1541 145.673 33.1541 145.673L38.1533 142.25L51.259 144.326L55.4174 170.334L50.4116 176.233L50.3656 176.286L46.4766 180.871L37.9431 190.928L68.9632 221.64Z" fill="#232163"/>
<path d="M17.302 125.264L11.4224 129.548L4.82031 171.741L9.3748 173.545C9.3748 173.545 25.1851 147.928 26.3347 133.64L17.302 125.264Z" fill="#F27E55"/>
<path d="M103.852 85.5213C98.1038 96.1963 80.6951 97.6743 80.6951 97.6743L78.12 96.1503L76.2609 95.0466L74.947 83.5505L78.3959 79.655L93.8337 79.1557L94.3199 53.3058L98.8724 51C98.8724 51 98.9446 51.1577 99.0694 51.4533C100.508 54.7904 109.134 75.7134 103.852 85.5213Z" fill="#F27E55"/>
<path d="M103.852 85.5216C98.1041 96.1966 80.6955 97.6747 80.6955 97.6747L78.1204 96.1506L78.751 91.2565C78.751 91.2565 95.5947 88.8916 100.41 84.7596C105.232 80.6275 98.8793 51.4865 98.8793 51.4865L99.0698 51.4536C100.508 54.7908 109.134 75.7138 103.852 85.5216Z" fill="#E86E43"/>
<path d="M24.8459 98.4963L17.3024 97.3467C17.3024 97.3467 14.9446 99.0192 14.0177 111.306C13.123 123.164 11.4229 129.55 11.4229 129.55C11.4229 129.55 18.7805 135.941 26.3351 133.642L29.1961 117.219L24.8459 98.4963Z" fill="#829900"/>
<path d="M69.5276 99.3164L71.1699 139.553C71.1699 139.553 51.1401 151.634 33.1534 145.675L32.9432 144.999L25.3163 120.666C25.3163 120.666 17.3018 109.663 17.3018 97.3456C17.3018 97.3456 24.3112 86.1779 41.3388 80.2656C41.3388 80.2656 61.1517 78.2423 78.3961 79.6547C77.7983 83.7407 77.9888 87.5771 78.7508 91.2559C79.2107 93.4435 79.8742 95.5785 80.6954 97.674L69.5276 99.3164Z" fill="#9EBA00"/>
<path d="M39.8633 65.2815C39.8633 65.2815 40.8815 58.4824 37.3946 55.8514C34.7222 53.8347 33.1514 56.2081 33.1514 56.2081L25.3143 61.0056C25.3143 61.0056 20.6659 62.5888 22.7378 66.4417C24.2796 69.3085 27.8579 71.546 27.8579 71.546L30.0731 70.3464L39.8633 65.2815Z" fill="#232163"/>
<path d="M34.5025 58.6796C35.2409 57.7632 35.5516 56.4336 35.0293 55.3786C34.4867 54.2828 33.1696 53.731 31.9483 53.7928C30.7271 53.8545 29.5893 54.4247 28.5606 55.0862C27.5318 55.7478 26.5648 56.5144 25.4638 57.0472C24.3634 57.5799 23.0759 57.8637 21.9118 57.4899C22.0149 58.0201 22.3677 58.5252 22.8453 58.7775C22.1272 58.8195 21.358 58.7775 20.6958 58.497C21.1432 59.8246 22.1903 60.7758 23.5173 61.2265C22.6784 61.373 21.6924 61.2416 20.9467 60.8297C21.3488 62.0102 22.2889 63.2478 23.4227 63.7668C24.5566 64.2858 25.9046 64.316 27.0608 63.8483C27.8392 62.5732 29.2569 61.7356 30.5556 60.9966C31.8531 60.2569 33.565 59.843 34.5025 58.6796Z" fill="#232163"/>
<path d="M27.5745 70.4758C27.1954 70.3293 26.8052 70.1933 26.3999 70.1683C25.9939 70.1434 25.5656 70.2406 25.2634 70.5119C24.8765 70.8594 24.7615 71.4487 24.9087 71.9473C25.0558 72.4459 25.4322 72.8545 25.8737 73.1284C26.8749 73.7492 28.2537 73.6894 29.1971 72.9839L27.5745 70.4758Z" fill="#F27E55"/>
<path d="M38.1851 63.2091C38.2619 62.8097 38.3532 62.407 38.5464 62.0496C38.7402 61.6923 39.0496 61.3802 39.4398 61.2679C39.9391 61.1234 40.5001 61.3382 40.845 61.7277C41.1898 62.1166 41.3377 62.652 41.3357 63.1723C41.3324 64.3502 40.5513 65.488 39.4529 65.9143L38.1851 63.2091Z" fill="#F27E55"/>
<path d="M41.9101 87.1358C39.0853 88.2328 35.2882 86.4066 36.8911 82.0315L35.3276 78.5104L33.9744 75.4622L40.3597 71.8623L42.6918 76.6907L43.6444 78.6549C43.6444 78.6549 45.8319 79.2001 46.3772 82.1169C46.929 85.0402 43.9334 86.354 41.9101 87.1358Z" fill="#F27E55"/>
<path d="M42.6918 76.6907C41.7261 78.425 40.3663 79.095 40.3663 79.095C38.4678 79.5154 36.786 79.2133 35.3276 78.5104L33.9744 75.4622L40.3597 71.8623L42.6918 76.6907Z" fill="#CC5D32"/>
<path d="M31.5589 59.4426C29.5769 59.6206 27.6292 60.5311 26.4815 62.157C25.3332 63.7822 25.0047 65.958 25.6216 67.8499C25.6216 67.8499 29.7589 78.699 37.6926 76.9411C37.6926 76.9411 44.5628 73.5467 38.4698 62.3009C37.759 60.9883 35.8933 57.9672 34.0119 58.0072C32.3544 58.042 32.3249 59.3743 31.5589 59.4426Z" fill="#F27E55"/>
<path d="M96.0477 53.7358C96.0477 53.7358 88.4864 53.1767 88.5291 51.9338C88.7538 50.98 91.6469 51.2047 91.6469 51.2047C91.6469 51.2047 88.0739 48.5113 88.5259 47.5581C88.9785 46.6042 92.9614 49.2976 92.9614 49.2976C92.9614 49.2976 89.6196 46.2968 90.605 45.2017C91.1102 44.6407 94.4763 48.1191 94.4763 48.1191C94.4763 48.1191 92.4563 44.6407 93.0173 43.9108C93.5783 43.1817 96.3275 47.2211 96.3275 47.2211C96.3275 47.2211 95.2055 44.3516 96.3275 43.8228C97.4496 43.294 99.3015 50.3073 98.7963 52.2143L96.0477 53.7358Z" fill="#F27E55"/>
<path d="M9.09287 172.606C9.09287 172.606 12.2901 179.259 11.2351 179.917C10.318 180.263 8.89054 177.737 8.89054 177.737C8.89054 177.737 8.64879 182.205 7.60493 182.362C6.56107 182.519 6.57355 177.71 6.57355 177.71C6.57355 177.71 5.94684 182.157 4.48911 181.95C3.74153 181.844 4.75057 177.11 4.75057 177.11C4.75057 177.11 2.99066 180.727 2.07227 180.668C1.15389 180.61 2.97292 176.074 2.97292 176.074C2.97292 176.074 1.21761 178.606 0.152728 177.97C-0.912153 177.334 3.87489 171.885 5.73991 171.239L9.09287 172.606Z" fill="#F27E55"/>
<path d="M69.5285 99.3151L71.1708 139.552C71.1708 139.552 51.141 151.632 33.1543 145.674L32.9441 144.998C52.179 146.134 65.8431 128.482 65.5803 113.656C65.3175 98.3626 62.5322 91.1299 62.5322 91.1299C70.7503 96.2276 76.1174 93.5605 78.7517 91.2547C79.2116 93.4422 79.8751 95.5772 80.6962 97.6728L69.5285 99.3151Z" fill="#829900"/>
<path d="M95.5023 241.598C95.3643 241.769 95.2198 241.933 95.0621 242.097C85.5235 229.865 77.1346 216.773 70.0069 202.984C69.8952 202.945 69.7967 202.846 69.7901 202.688L69.777 202.551C69.7441 202.478 69.6981 202.399 69.6587 202.327C69.5799 202.163 69.639 202.012 69.7441 201.92C68.8638 185.517 67.9835 169.107 67.1033 152.697C64.4887 151.935 62.2026 150.135 60.8362 147.507C60.6391 147.133 61.2106 146.798 61.4011 147.172C62.6624 149.589 64.712 151.251 67.0836 151.994C67.1295 151.646 67.7076 151.665 67.7273 152.066C67.7273 152.099 67.7339 152.138 67.7339 152.178C69.5536 152.611 71.531 152.526 73.4558 151.823C73.8565 151.678 74.0273 152.309 73.6331 152.454C71.6689 153.17 69.6521 153.275 67.7733 152.861C68.6536 169.363 69.5405 185.865 70.4273 202.373C77.5484 216.195 85.944 229.333 95.5023 241.598Z" fill="#171642"/>
<path d="M50.3648 176.288L46.4758 180.874L43.7693 161.205C39.1642 157.389 40.189 146.458 40.189 146.458C41.0036 157.454 45.7335 159.169 45.7335 159.169L50.3648 176.288Z" fill="#171642"/>
<path d="M68.9626 221.642C68.9626 222.936 68.7064 224.152 68.2794 225.268L29.1987 191.844C37.2001 190.865 47.1 171.243 47.1 171.243L50.411 176.236L50.365 176.288L46.476 180.874L37.9425 190.931L68.9626 221.642Z" fill="#171642"/>
<path d="M37.0868 63.9863C36.1336 63.7236 34.8703 64.2898 34.1024 64.8246C33.6944 65.1083 34.1326 65.6805 34.5189 65.3645C34.8874 65.0637 35.2894 64.8154 35.7138 64.6012C36.1566 64.3778 36.6598 64.3568 37.1098 64.1643C37.1913 64.1302 37.161 64.0067 37.0868 63.9863Z" fill="#232163"/>
<path d="M36.0085 67.0936C36.0085 67.0936 35.077 65.5137 35.8062 65.1491C36.5354 64.7845 37.4669 66.4052 37.4669 66.4052L36.0893 65.7167L36.0085 67.0936Z" fill="#232163"/>
<path d="M27.9958 68.5807C28.2678 67.6302 29.4095 66.8471 30.2662 66.4701C30.7214 66.2697 30.9809 66.9417 30.5099 67.1073C30.0612 67.2649 29.6395 67.4791 29.2361 67.7294C28.815 67.9908 28.5345 68.4093 28.1357 68.6931C28.0635 68.745 27.9748 68.655 27.9958 68.5807Z" fill="#232163"/>
<path d="M31.2102 69.2798C31.2102 69.2798 30.347 67.6612 29.6559 68.0941C28.9648 68.5263 29.8628 70.166 29.8628 70.166L29.9922 68.6314L31.2102 69.2798Z" fill="#232163"/>
<path d="M36.0367 69.4191C35.6195 68.9415 34.9928 68.6255 34.5198 68.1985C34.0856 67.8063 33.7571 67.2683 33.2855 66.9274C33.252 66.903 33.2066 66.9431 33.2178 66.9792C33.3873 67.5324 33.8951 68.0211 34.2735 68.4442C34.6341 68.8462 35.0349 69.3113 35.5111 69.6056C35.4356 69.649 35.3607 69.6963 35.2871 69.7436C35.0211 69.9118 34.7208 70.0622 34.5001 70.2875C34.3681 70.4222 34.4988 70.6948 34.6946 70.6219C34.9922 70.5109 35.2497 70.3046 35.5124 70.1292C35.6714 70.0228 35.835 69.9236 35.9493 69.7797C36.0827 69.7363 36.1365 69.5334 36.0367 69.4191Z" fill="#CC5D32"/>
<path d="M32.7307 72.5182C34.8014 72.1181 36.69 70.8529 37.8482 69.0903C37.8482 69.0903 39.4531 72.9261 37.4678 74.1414C35.4832 75.3567 32.7307 72.5182 32.7307 72.5182Z" fill="white"/>
<path d="M125.964 12.8515L134.305 10.5371C134.305 10.5371 136.277 4.99335 134.812 4.38504C134.812 4.38504 136.267 1.66407 135.519 1.28831C134.358 0.705619 132.473 3.8352 132.473 3.8352C132.473 3.8352 134.256 0.768027 133.389 0.373217C132.521 -0.0215936 130.014 3.40163 130.014 3.40163C130.014 3.40163 131.605 0.511827 130.593 0.341684C129.58 0.171541 127.7 3.83586 127.7 3.83586C127.7 3.83586 129.195 1.18386 128.327 0.943426C127.459 0.702335 125.483 5.52349 125.483 5.52349C125.483 5.52349 122.831 7.21112 123.875 11.1159L125.964 12.8515Z" fill="#F27E55"/>
<path d="M182.254 220.782L179.655 218.272L179.474 214.025L172.82 210.884L174.83 204.464L181.679 205.873L186.011 211.482L186.296 215.479L183.895 221.327L182.254 220.782Z" fill="#F27E55"/>
<path d="M183.004 229.749L181.929 231.128C181.929 231.128 179.199 226.69 179.656 218.27C179.656 218.27 183.203 218.522 184.947 220.513L183.004 229.749Z" fill="#E53F33"/>
<path d="M181.928 231.129C181.928 231.129 185.352 216.012 185.003 211.234C185.003 211.234 178.77 208.413 180.81 204.972L188.975 206.753L188.431 210.368L186.557 211.012L188.164 212.117L185.144 227.195C184.923 228.301 184.415 229.342 183.619 230.14C183.161 230.599 182.593 230.995 181.928 231.129Z" fill="#232163"/>
<path d="M164.713 221.037L162.114 218.526L161.933 214.28L155.278 211.139L157.289 204.719L164.138 206.128L168.47 211.736L168.755 215.735L166.354 221.582L164.713 221.037Z" fill="#F27E55"/>
<path d="M165.462 230.004L164.386 231.383C164.386 231.383 161.656 226.944 162.113 218.524C162.113 218.524 165.66 218.776 167.404 220.767L165.462 230.004Z" fill="#E53F33"/>
<path d="M164.388 231.385C164.388 231.385 167.812 216.268 167.463 211.49C167.463 211.49 161.23 208.668 163.27 205.228L171.435 207.008L170.891 210.624L169.017 211.268L170.624 212.373L167.604 227.451C167.383 228.557 166.875 229.597 166.079 230.396C165.621 230.855 165.053 231.252 164.388 231.385Z" fill="#232163"/>
<path d="M129.683 207.679C129.683 207.679 120.716 209.446 111.316 208.789C104.549 208.323 97.5595 206.595 93.5128 202.049C86.4246 194.087 102.132 124.48 102.132 124.48L108.235 121.905L121.669 127.758L121.61 137.553L121.235 196.419L129.683 207.679Z" fill="#7F9DFF"/>
<path d="M129.682 207.678C129.682 207.678 120.715 209.445 111.315 208.788C106.631 206.39 101.691 205.521 99.9301 199.535C96.7689 188.787 110.677 137.742 110.677 137.742C108.148 132.684 110.677 125.878 110.677 125.878L119.158 128.256L121.609 137.551L121.234 196.418L129.682 207.678Z" fill="#4B66BD"/>
<path d="M175.95 207.437C175.917 207.647 175.871 207.864 175.825 208.08C175.365 210.248 174.465 212.745 172.79 215.261C172.79 215.261 104.68 213.96 102.131 196.637C99.5753 179.307 115.388 126.675 115.388 126.675L137.697 123.423L144.503 125.794C144.503 125.794 152.307 139.235 149.66 150.068C145.711 167.824 127.423 181.902 127.423 181.902L176.035 201.183C176.035 201.183 176.607 203.784 175.95 207.437Z" fill="#7F9DFF"/>
<path d="M112.091 33.2242L120.855 52.137L119.317 55.8289L114.167 60.3157L112.768 60.6573L107.493 61.958C107.493 61.958 99.8328 51.3355 101.035 36.0095C102.217 20.92 123.206 9.64722 123.863 9.29905C123.87 9.29248 123.876 9.29248 123.876 9.29248L127.424 12.3603L112.091 33.2242Z" fill="#F27E55"/>
<path d="M105.877 33.2283C104.727 43.9427 107.867 52.417 112.768 60.6614L107.493 61.9621C107.493 61.9621 99.8328 51.3397 101.035 36.0137C102.217 20.9242 123.206 9.65139 123.863 9.30322C123.357 9.69738 107.046 22.2774 105.877 33.2283Z" fill="#E86E43"/>
<path d="M208.606 101.978C208.606 101.978 170.123 116.699 149.66 93.7135L149.909 89.9953L150.028 88.307L156.617 82.6049L161.307 81.6655L177.343 96.4463L207.791 97.4251L208.606 101.978Z" fill="#F27E55"/>
<path d="M208.606 101.979C208.606 101.979 170.123 116.7 149.66 93.7146L149.909 89.9964L152.852 89.0898C152.852 89.0898 161.951 96.9992 173.736 101.979C185.521 106.965 208.606 101.979 208.606 101.979Z" fill="#E86E43"/>
<path d="M144.939 33.4556C148.57 33.3491 152.094 36.0189 152.974 39.5419C153.405 41.2644 153.266 43.1287 153.973 44.7579C154.659 46.3411 156.095 47.5715 156.499 49.2493C157.038 51.4894 155.589 53.6934 155.28 55.9762C155.022 57.8885 155.574 59.806 155.768 61.7262C155.962 63.6464 155.683 65.8254 154.194 67.0525C154.194 67.0525 153.393 65.3058 149.162 65.2099C144.931 65.114 133.103 59.5367 129.931 52.5168C128.104 48.5746 123.872 48.1378 123.872 48.1378C123.938 46.9684 124.804 45.8491 125.847 45.3176C126.89 44.7855 128.059 44.4288 128.898 43.6122C130.229 42.3155 130.481 40.0911 132.033 39.0696C133.313 38.2268 135.025 38.5099 136.466 37.9903C138 37.4378 139.05 36.0589 140.261 34.9671C141.471 33.8753 143.486 32.7159 144.939 33.4556Z" fill="#232163"/>
<path d="M161.307 81.6668C161.307 81.6668 159.35 91.6323 149.66 93.7148L145.377 89.8783L136.18 105.973L144.503 125.792C144.503 125.792 121.622 136.96 102.138 124.485C102.131 124.478 102.131 124.478 102.131 124.478L106.835 90.8637C106.835 90.8637 100.923 78.7304 112.971 72.5816L107.492 61.9591C107.492 61.9591 111.23 50.7061 120.854 52.1382L127.095 59.3315L129.065 64.4752L140.246 68.3116L143.873 68.9619C143.873 68.9619 148.99 70.0918 161.307 81.6668Z" fill="#E53F33"/>
<path d="M143.871 68.961C143.871 68.961 138.005 80.9827 129.254 77.6192C120.504 74.2492 127.093 59.3305 127.093 59.3305L131.232 61.3276L134.3 55.5204L136.086 52.1372L141.375 55.6912L141.329 61.5115L141.283 66.6223L143.871 68.961Z" fill="#F27E55"/>
<path d="M141.376 55.6912L141.33 61.5115C137.941 62.1159 134.603 59.5473 134.321 55.9079C134.308 55.7831 134.301 55.6517 134.301 55.5204L136.088 52.1372L141.376 55.6912Z" fill="#CC5D32"/>
<path d="M218.558 97.7715C218.558 97.7715 222.55 99.6398 221.701 100.532C221.213 101.042 219.429 100.829 219.429 100.829C219.429 100.829 220.937 101.551 220.555 102.124C220.172 102.698 217.837 102.124 217.837 102.124C217.837 102.124 218.962 102.804 218.474 103.208C217.986 103.611 212.401 102.464 212.401 102.464L214.376 98.366L218.558 97.7715Z" fill="#F27E55"/>
<path d="M218.523 96.0974C216.541 95.8261 207.789 97.4244 207.789 97.4244L207.498 101.637C207.498 101.637 212.06 105.711 215.156 100.741C215.156 100.741 219.338 101.23 219.256 100.116C219.215 99.5489 218.333 99.1298 217.479 98.8552C218.985 97.7266 221.32 100.035 222.135 99.3019C222.931 98.5852 220.505 96.3687 218.523 96.0974Z" fill="#F27E55"/>
<path d="M222.196 98.0319C219.833 95.4134 216.807 95.7221 213.664 96.5643C213.256 96.674 213.429 97.3079 213.839 97.1976C215.635 96.7167 217.38 96.3088 219.23 96.7725C220.075 96.9841 220.806 97.5661 221.42 98.1514C221.589 98.9831 221.376 99.2104 220.78 98.834C220.287 98.6651 219.81 98.4602 219.349 98.2178C219.286 98.1862 219.224 98.1823 219.166 98.1882C219.111 98.1685 219.05 98.158 218.979 98.1751C218.414 98.3117 217.848 98.449 217.283 98.5856C217.1 98.6297 217.038 98.7781 217.055 98.922C217.055 98.9325 217.058 98.9423 217.059 98.9535C217.061 98.9634 217.061 98.9726 217.063 98.9818C217.084 99.1263 217.184 99.2596 217.372 99.2642C217.83 99.2761 218.267 99.2833 218.652 99.5855C218.768 100.116 218.637 100.39 218.26 100.409C218.029 100.439 217.798 100.464 217.566 100.484C216.788 100.558 216.005 100.575 215.223 100.565C215.057 100.563 214.958 100.663 214.922 100.786C213.815 102.347 212.03 103.034 210.154 102.647C209.741 102.562 209.565 103.195 209.979 103.281C211.167 103.525 212.302 103.388 213.303 102.929C213.314 102.933 213.321 102.941 213.334 102.945C214.856 103.384 216.704 103.955 218.307 103.81C219.126 103.736 219.157 103.103 218.901 102.565C219.437 102.659 219.994 102.735 220.496 102.573C220.794 102.477 221.05 102.061 220.967 101.749C220.914 101.547 220.832 101.39 220.729 101.259C221.069 101.236 221.398 101.177 221.693 101.043C222.34 100.75 222.316 100.15 222.056 99.6492C222.096 99.6328 222.14 99.6275 222.177 99.6058C222.787 99.2504 222.596 98.4759 222.196 98.0319ZM217.785 103.159C217.277 103.124 216.77 103.036 216.268 102.955C215.538 102.837 214.819 102.662 214.106 102.47C214.319 102.321 214.526 102.161 214.721 101.978L214.723 101.979C215.805 102.126 216.888 102.273 217.97 102.419C217.98 102.429 217.984 102.44 217.995 102.449C218.343 102.734 218.29 103.194 217.785 103.159ZM219.31 101.944C218.868 101.885 218.428 101.825 217.986 101.764C217.077 101.641 216.168 101.517 215.259 101.394C215.307 101.334 215.361 101.282 215.408 101.219C216.227 101.223 217.042 101.191 217.858 101.113C217.995 101.1 218.163 101.086 218.335 101.062C218.388 101.117 218.46 101.157 218.557 101.161C218.812 101.17 219.084 101.195 219.363 101.219C219.4 101.276 219.456 101.325 219.544 101.347C219.636 101.37 219.727 101.393 219.819 101.416C220.406 101.745 219.954 102.218 219.31 101.944ZM220.953 100.579C220.733 100.604 220.498 100.576 220.278 100.568C219.96 100.556 219.642 100.545 219.325 100.533C219.715 99.7287 219.325 99.2091 218.718 98.9148C218.843 98.8845 218.969 98.8543 219.094 98.8241C219.655 99.1072 220.55 99.6229 221.323 99.7267C221.601 100.098 221.48 100.521 220.953 100.579Z" fill="#CC5D32"/>
<path d="M135.222 0.84696C134.853 0.814114 134.468 1.06046 134.119 1.37578C134.122 1.20695 134.102 1.03353 134.052 0.851559C133.916 0.356896 133.309 -0.106234 132.781 0.0566831C132.089 0.270183 131.586 0.831194 131.136 1.39286C131.153 1.20038 131.135 1.00594 131.051 0.808202C130.821 0.266241 130.346 0.10201 129.794 0.241935C129.461 0.326021 129.179 0.5993 128.938 0.917908C128.715 0.355582 128.114 0.174929 127.429 0.732656C126.797 1.24703 126.4 2.30533 126.069 3.02137C125.694 3.83267 125.399 4.6801 125.099 5.52031C124.955 5.92037 125.591 6.09052 125.732 5.69505C126.014 4.90609 126.299 4.12106 126.636 3.35312C126.809 2.95831 127.01 2.57729 127.218 2.20088C127.326 2.01431 127.438 1.83103 127.557 1.65169C127.956 1.14126 128.285 1.15177 128.377 1.56695C128.365 1.63592 128.379 1.6957 128.401 1.75023C128.367 1.80672 128.333 1.86388 128.3 1.9138C127.813 2.67977 127.419 3.49896 127.071 4.33588C126.908 4.72675 127.544 4.89557 127.704 4.51062C128.1 3.56071 128.587 2.66204 129.154 1.80344C129.331 1.53476 129.518 1.2779 129.735 1.03878C129.916 0.730028 130.088 0.764188 130.412 0.97506C130.498 1.19644 130.504 1.41848 130.431 1.64052C130.336 2.05307 130.169 2.4019 130.119 2.81379C129.837 3.27823 129.584 3.76107 129.362 4.25902C129.191 4.642 129.757 4.97703 129.929 4.59076C130.15 4.09479 130.411 3.62509 130.69 3.16524C130.703 3.1475 130.717 3.13042 130.726 3.10875C130.88 2.85911 131.031 2.60817 131.203 2.36708C131.518 1.92497 131.886 1.52293 132.263 1.13338C132.579 0.728715 132.986 0.813457 133.482 1.38564C133.508 1.76074 133.236 2.15884 133.063 2.47022C133.049 2.49584 133.047 2.52014 133.039 2.5451C132.388 3.27954 131.828 4.09544 131.345 4.94747C131.136 5.31666 131.703 5.64709 131.912 5.27922C132.548 4.15785 133.317 3.14882 134.229 2.23832C134.453 2.01563 134.686 1.79818 134.944 1.61425C135.814 0.992797 135.445 2.44854 135.418 2.54839C135.238 3.1948 134.972 3.81165 134.673 4.41076C133.606 4.56843 132.95 6.34934 132.474 7.24801C130.495 6.28037 128.202 7.69143 128.249 9.96833C128.258 10.3914 128.915 10.392 128.906 9.96833C128.867 8.08625 130.791 6.97342 132.402 7.95026C132.561 8.04617 132.709 7.98902 132.8 7.87932C132.854 7.85501 132.905 7.81888 132.944 7.75384C133.396 6.9951 133.846 6.23635 134.297 5.47695C134.579 5.23323 134.981 5.17674 134.939 5.75023C134.915 6.08329 134.885 6.41569 134.848 6.7481C134.784 7.384 134.676 8.01333 134.564 8.642C134.318 10.015 133.418 10.4591 132.184 10.8236C131.063 11.1554 129.943 11.4865 128.821 11.8182C128.416 11.9378 128.589 12.5724 128.996 12.4515C130.117 12.1198 131.238 11.788 132.358 11.4569C132.936 11.2861 133.685 11.1547 134.169 10.7586C135.323 9.81658 135.339 8.12369 135.504 6.74744C135.556 6.31781 135.776 5.0828 135.32 4.59602C135.889 3.47071 137.041 1.00922 135.222 0.84696Z" fill="#CC5D32"/>
<path d="M143.237 57.1399C145.519 56.1664 148.067 53.7923 150.029 48.4797C150.029 48.4797 149.933 40.7872 144.115 38.6719C144.115 38.6719 138.87 39.5889 136.182 45.7877C135.113 48.2511 134.835 50.2823 134.96 51.9135C135.275 56.0035 139.463 58.7501 143.237 57.1399Z" fill="#F27E55"/>
<path d="M161.307 81.6655C161.307 81.6655 159.35 91.631 149.66 93.7135L145.377 89.8771L136.18 105.972L144.503 125.791C144.503 125.791 121.622 136.959 102.138 124.484C102.131 124.477 102.131 124.477 102.131 124.477C114.823 127.459 126.288 125.905 132.131 124.668C134.412 124.186 135.886 121.972 135.446 119.683L133.834 111.298C133.35 108.779 131.629 106.726 129.313 105.623C123.561 102.884 123.633 95.9595 123.633 95.9595C134.472 105.905 143.873 84.4765 143.873 84.4765L145.008 85.3916C148.942 88.5612 154.641 88.3865 158.298 84.9009C160.079 83.204 161.307 81.6655 161.307 81.6655Z" fill="#BA3329"/>
<path d="M175.949 207.435C175.917 207.645 175.871 207.862 175.825 208.079C154.921 202.705 134.274 196.373 113.955 189.1C113.692 189.008 113.679 188.7 113.817 188.542C113.745 188.47 113.699 188.371 113.732 188.24C118.271 171.147 123.986 154.389 130.825 138.077C128.414 137.118 126.325 135.325 125.011 132.809C124.814 132.434 125.379 132.099 125.576 132.474C126.824 134.858 128.802 136.573 131.088 137.479C131.291 137.204 131.804 137.361 131.679 137.709C134.202 138.544 137.04 138.412 139.667 137.144C140.048 136.96 140.383 137.525 140.002 137.709C137.191 139.069 134.143 139.207 131.436 138.307C124.604 154.599 118.902 171.344 114.369 188.417C114.356 188.463 114.336 188.496 114.31 188.529C134.556 195.775 155.125 202.081 175.949 207.435Z" fill="#4B66BD"/>
<path d="M142.984 45.8423C142.661 44.7584 140.062 44.1547 139.249 44.9206C139.232 44.9371 139.237 44.9653 139.256 44.9771C139.762 45.2839 140.472 45.2412 141.041 45.412C141.642 45.5927 142.168 46.0893 142.809 46.0735C142.925 46.0696 143.019 45.9579 142.984 45.8423Z" fill="#232163"/>
<path d="M145.606 47.2191C145.157 47.1554 144.896 47.6869 145.293 47.9601C145.718 48.2525 146.146 48.5028 146.55 48.8273C146.959 49.1557 147.293 49.5604 147.579 49.994C147.63 50.0708 147.756 50.0445 147.756 49.946C147.752 48.7452 146.87 47.3985 145.606 47.2191Z" fill="#232163"/>
<path d="M145.51 51.0486C146.017 51.0486 146.427 50.6383 146.427 50.1322C146.427 49.6261 146.017 49.2158 145.51 49.2158C145.004 49.2158 144.594 49.6261 144.594 50.1322C144.594 50.6383 145.004 51.0486 145.51 51.0486Z" fill="#232163"/>
<path d="M140.459 48.1312C140.966 48.1312 141.376 47.7209 141.376 47.2147C141.376 46.7086 140.966 46.2983 140.459 46.2983C139.953 46.2983 139.543 46.7086 139.543 47.2147C139.543 47.7209 139.953 48.1312 140.459 48.1312Z" fill="#232163"/>
<path d="M143.429 48.852C143.452 48.7699 143.336 48.7226 143.293 48.7949C142.859 49.5129 142.746 50.3432 142.565 51.148C142.497 51.4475 142.422 51.816 142.434 52.159C142.089 51.8903 141.704 51.6643 141.323 51.4626C140.92 51.2485 140.576 51.8338 140.966 52.0742C141.489 52.3981 142.058 52.7108 142.662 52.8494C142.694 52.8881 142.723 52.9282 142.762 52.9624C142.848 53.0353 142.983 53.0333 143.044 52.9262C143.346 52.3902 143.02 51.7898 142.987 51.2058C142.939 50.3642 143.203 49.6436 143.429 48.852Z" fill="#CC5D32"/>
<path d="M137.838 50.8833C139.061 52.412 140.818 53.5051 142.73 53.9262C141.782 54.8353 140.065 54.9621 138.967 54.2382C137.871 53.5149 137.375 52.1131 137.838 50.8833Z" fill="white"/>
</svg>
