<svg width="22" height="22" viewBox="0 0 22 22" fill="none" xmlns="http://www.w3.org/2000/svg">
<path d="M13.4776 11.0582L13.1526 10.5244C12.9423 10.6525 12.8268 10.8921 12.8576 11.1365C12.8884 11.3807 13.0598 11.5842 13.2954 11.6561L13.4776 11.0582ZM7.63626 11.0582L7.81855 11.6561C8.05413 11.5842 8.22551 11.3807 8.25639 11.1365C8.28714 10.8921 8.17164 10.6525 7.96125 10.5244L7.63626 11.0582ZM15.557 6.25C15.557 8.05999 14.5956 9.646 13.1526 10.5244L13.8026 11.5921C15.6026 10.4964 16.807 8.51412 16.807 6.25H15.557ZM10.557 1.25C13.3184 1.25 15.557 3.48857 15.557 6.25H16.807C16.807 2.79822 14.0088 0 10.557 0V1.25ZM5.55696 6.25C5.55696 3.48857 7.79554 1.25 10.557 1.25V0C7.10519 0 4.30696 2.79822 4.30696 6.25H5.55696ZM7.96125 10.5244C6.51831 9.646 5.55696 8.06 5.55696 6.25H4.30696C4.30696 8.51412 5.51129 10.4964 7.31129 11.5921L7.96125 10.5244ZM7.45399 10.4604C3.50805 11.6636 0.536463 15.1005 0.0138129 19.3003L1.25424 19.4546C1.71499 15.7522 4.33678 12.7177 7.81855 11.6561L7.45399 10.4604ZM0.0138129 19.3003C-0.124325 20.4103 0.7952 21.25 1.80696 21.25V20C1.43803 20 1.22186 19.7149 1.25424 19.4546L0.0138129 19.3003ZM1.80696 21.25H19.307V20H1.80696V21.25ZM19.307 21.25C20.3188 21.25 21.2383 20.4103 21.1001 19.3003L19.8596 19.4546C19.892 19.7149 19.6759 20 19.307 20V21.25ZM21.1001 19.3003C20.5775 15.1005 17.6059 11.6636 13.6599 10.4604L13.2954 11.6561C16.7771 12.7177 19.3989 15.7522 19.8596 19.4546L21.1001 19.3003Z" fill="#010157"/>
</svg>
