<svg width="38" height="50" viewBox="0 0 38 50" fill="none" xmlns="http://www.w3.org/2000/svg">
<path d="M30.0112 32.8012C30.0112 32.9492 30.07 33.0911 30.1746 33.1958C30.2793 33.3004 30.4212 33.3592 30.5692 33.3592C30.7172 33.3592 30.8591 33.3004 30.9638 33.1958C31.0685 33.0911 31.1272 32.9492 31.1272 32.8012C31.1272 32.6532 31.0685 32.5113 30.9638 32.4066C30.8591 32.302 30.7172 32.2432 30.5692 32.2432C30.4212 32.2432 30.2793 32.302 30.1746 32.4066C30.07 32.5113 30.0112 32.6532 30.0112 32.8012Z" fill="#010157"/>
<path d="M18.9788 0H0V50H37.9464V17.9464L18.9788 0ZM34.5368 18.0971H18.9118V3.30915L34.5368 18.0971ZM35.4911 47.5446H2.45536V2.45536H18.0022L18.0134 2.46652V18.9955H35.4743L35.4855 19.0067V47.5446H35.4911Z" fill="#010157"/>
<path d="M6.05469 26.0039H24.2411V26.8968H6.05469V26.0039Z" fill="#010157"/>
<path d="M26.0882 26.0039H31.1216V26.8968H26.0882V26.0039Z" fill="#010157"/>
<path d="M12.9185 32.2432H28.3761V33.136H12.9185V32.2432Z" fill="#010157"/>
<path d="M6.06027 32.2432H11.1496V33.136H6.06027V32.2432Z" fill="#010157"/>
<path d="M6.02121 38.4873H24.2411V39.3802H6.02121V38.4873Z" fill="#010157"/>
<path d="M26.9978 38.4873H31.1217V39.3802H26.9978V38.4873Z" fill="#010157"/>
</svg>
