<svg width="73" height="51" viewBox="0 0 73 51" fill="none" xmlns="http://www.w3.org/2000/svg">
<path d="M72.5895 17.5151L65.1796 3.18736C64.7377 2.34207 63.9864 1.70437 63.0857 1.41007C62.185 1.11577 61.2061 1.18813 60.3575 1.61172L53.0885 5.28127H47.6072L37.428 0.630869C36.6417 0.272187 35.7543 0.208814 34.9258 0.452165L19.807 4.90246L12.6425 1.28566C11.7938 0.862216 10.815 0.789928 9.91442 1.08418C9.01379 1.37844 8.26248 2.016 7.82042 2.86115L0.410496 17.1892C0.1883 17.619 0.0530961 18.0891 0.0127738 18.5722C-0.0275484 19.0552 0.0278184 19.5416 0.175644 20.0028C0.323469 20.4641 0.560792 20.891 0.873766 21.2586C1.18674 21.6263 1.5691 21.9273 1.99852 22.1441L9.33826 25.8496L25.7125 38.7773C26.111 39.093 26.5711 39.32 27.0627 39.4434L44.5255 43.8514C44.8096 43.9229 45.1013 43.959 45.3941 43.9589C46.3552 43.9593 47.2774 43.5754 47.959 42.8912L59.0461 31.6966C59.0684 31.6741 59.0896 31.6508 59.1102 31.6268L63.7725 26.1197L71.0015 22.4702C71.4309 22.2533 71.8133 21.9523 72.1262 21.5847C72.4392 21.217 72.6765 20.7901 72.8244 20.3288C72.9722 19.8676 73.0276 19.3812 72.9872 18.8981C72.9469 18.415 72.8117 17.9449 72.5895 17.5151ZM58.0018 29.1903L45.6454 20.1168C45.4369 19.9637 45.1854 19.8822 44.9276 19.8841C44.6699 19.886 44.4195 19.9712 44.2133 20.1273L40.3567 23.0479C38.8935 24.147 37.1185 24.7407 35.2948 24.7407C33.4711 24.7407 31.696 24.147 30.2329 23.0479L28.5996 21.8111C28.4615 21.7065 28.3472 21.5732 28.2646 21.4201C28.1819 21.267 28.1328 21.0978 28.1206 20.9239C28.1083 20.7501 28.1332 20.5755 28.1936 20.4122C28.2539 20.2489 28.3483 20.1006 28.4704 19.9773L40.2619 8.07157C40.4884 7.84414 40.7946 7.71605 41.114 7.71506H47.3436L47.3464 7.71536L47.3505 7.71506H52.6428L61.5695 24.976L58.0018 29.1903ZM2.46902 19.2536C2.41921 19.0999 2.40048 18.9377 2.41392 18.7766C2.42737 18.6155 2.47272 18.4587 2.54729 18.3156L9.95721 3.98758C10.0602 3.79039 10.2146 3.62539 10.4037 3.51042C10.5929 3.39546 10.8095 3.33491 11.0303 3.33532C11.2157 3.33515 11.3986 3.37869 11.5644 3.46249L17.9909 6.70675L9.46494 23.1924L3.07663 19.9673C2.93318 19.8955 2.80549 19.7953 2.70111 19.6727C2.59674 19.5501 2.51782 19.4075 2.46902 19.2536ZM46.2547 41.1701C46.1073 41.3184 45.9244 41.4257 45.7239 41.4818C45.5233 41.5378 45.3118 41.5407 45.1098 41.4901L27.6471 37.0821C27.4833 37.041 27.33 36.9654 27.1972 36.8602L11.5179 24.481L20.4264 7.25527L35.6002 2.78881C35.8764 2.70748 36.1723 2.72855 36.4344 2.84823L41.7597 5.28128H41.114C40.6391 5.27997 40.1686 5.37379 39.7298 5.55733C39.2909 5.74087 38.8926 6.01046 38.5576 6.35051L26.7661 18.2562C26.3998 18.626 26.1164 19.071 25.9352 19.561C25.7541 20.051 25.6793 20.5747 25.716 21.0964C25.7527 21.6181 25.9 22.1258 26.1479 22.5851C26.3959 23.0443 26.7387 23.4444 27.1531 23.7582L28.7864 24.995C30.6677 26.4082 32.95 27.1713 35.2948 27.1713C37.6396 27.1713 39.9219 26.4082 41.8031 24.995L44.9474 22.6137L56.3445 30.9826L46.2547 41.1701ZM70.531 19.5796C70.4822 19.7336 70.4033 19.8761 70.2989 19.9987C70.1945 20.1213 70.0668 20.2215 69.9234 20.2934L63.5351 23.5185L55.0091 7.03278L61.4356 3.78852C61.7185 3.64724 62.0448 3.62308 62.345 3.7212C62.6452 3.81932 62.8956 4.03196 63.0428 4.31378L70.4527 18.6416C70.5273 18.7847 70.5726 18.9414 70.5861 19.1026C70.5995 19.2637 70.5808 19.4259 70.531 19.5796ZM32.8484 49.3845C32.8102 49.5396 32.742 49.6856 32.6479 49.8141C32.5537 49.9426 32.4353 50.051 32.2996 50.1333C32.1638 50.2156 32.0134 50.27 31.8568 50.2935C31.7001 50.3169 31.5405 50.309 31.3869 50.2701L22.3057 47.978C21.7531 47.8377 21.2409 47.5683 20.8104 47.1913L14.0154 41.2275C13.8955 41.1228 13.7973 40.9952 13.7263 40.8521C13.6553 40.709 13.613 40.5532 13.6017 40.3936C13.5904 40.2339 13.6105 40.0736 13.6607 39.9218C13.7109 39.77 13.7903 39.6297 13.8943 39.5089C13.9983 39.3881 14.1248 39.2892 14.2667 39.2179C14.4086 39.1466 14.5631 39.1042 14.7212 39.0932C14.8794 39.0823 15.0381 39.1029 15.1883 39.154C15.3385 39.2051 15.4773 39.2855 15.5967 39.3908L22.3919 45.3547C22.5357 45.4803 22.7066 45.5702 22.891 45.617L31.9713 47.9088C32.2814 47.9871 32.548 48.1865 32.7125 48.4633C32.877 48.74 32.9259 49.0713 32.8484 49.3845Z" fill="#010157"/>
</svg>
