<svg width="50" height="51" viewBox="0 0 50 51" fill="none" xmlns="http://www.w3.org/2000/svg">
<path d="M21.4298 40.0394C26.1662 40.0394 30.7086 38.1579 34.0577 34.8087C37.4069 31.4596 39.2884 26.9172 39.2884 22.1808C39.2884 17.4444 37.4069 12.902 34.0577 9.55284C30.7086 6.2037 26.1662 4.32217 21.4298 4.32217C16.6934 4.32217 12.151 6.2037 8.80186 9.55284C5.45272 12.902 3.57119 17.4444 3.57119 22.1808C3.57119 26.9172 5.45272 31.4596 8.80186 34.8087C12.151 38.1579 16.6934 40.0394 21.4298 40.0394ZM38.024 35.7426L50 47.7186L46.9676 50.751L34.9916 38.775C30.7346 42.2541 25.3033 43.964 19.821 43.5511C14.3387 43.1383 9.22473 40.6342 5.53678 36.5568C1.84883 32.4794 -0.131005 27.1405 0.0067336 21.6444C0.144472 16.1483 2.38925 10.9153 6.2768 7.02778C10.1644 3.14022 15.3973 0.895449 20.8934 0.75771C26.3896 0.619972 31.7284 2.59981 35.8058 6.28775C39.8832 9.9757 42.3873 15.0896 42.8001 20.572C43.213 26.0543 41.5031 31.4856 38.024 35.7426Z" fill="#010157"/>
</svg>
